<svg width="234" height="65" viewBox="0 0 234 65" fill="none" xmlns="http://www.w3.org/2000/svg">
    <path
        d="M41.5703 12.6172H12.7031V25.8594H37.9766V35.8594H12.7031V60H0.75V2.5H41.5703V12.6172ZM78.9922 48.1641H57.7812L53.7969 60H41.2188L61.7656 2.42188H75.3594L95.75 60H82.7031L78.9922 48.1641ZM75.6328 38.2422L68.4453 15.5859L61.0234 38.2422H75.6328ZM137.703 60.3125C135.125 61.1719 132.039 61.6016 128.445 61.6016C120.945 61.6016 114.747 59.362 109.852 54.8828C103.914 49.4922 100.945 41.5755 100.945 31.1328C100.945 20.612 103.992 12.6562 110.086 7.26562C115.06 2.86458 121.245 0.664062 128.641 0.664062C136.089 0.664062 142.339 2.99479 147.391 7.65625C153.224 13.0469 156.141 20.5859 156.141 30.2734C156.141 35.4036 155.516 39.7005 154.266 43.1641C153.25 46.4714 151.753 49.2188 149.773 51.4062L156.414 57.6172L150.125 64.1797L143.172 57.6172C141.062 58.8932 139.24 59.7917 137.703 60.3125ZM135.125 49.9219L129.305 44.375L135.516 37.8906L141.336 43.4375C142.247 41.5625 142.885 39.9219 143.25 38.5156C143.823 36.4062 144.109 33.9453 144.109 31.1328C144.109 24.6745 142.781 19.6875 140.125 16.1719C137.495 12.6302 133.641 10.8594 128.562 10.8594C123.797 10.8594 119.995 12.5521 117.156 15.9375C114.318 19.3229 112.898 24.388 112.898 31.1328C112.898 39.0234 114.93 44.6745 118.992 48.0859C121.622 50.2995 124.773 51.4062 128.445 51.4062C129.826 51.4062 131.154 51.237 132.43 50.8984C133.133 50.7161 134.031 50.3906 135.125 49.9219ZM164.422 2.42188H176.375V60H164.422V2.42188ZM221.961 60V34.2969H199.461V60H187.547V2.42188H199.461V24.375H221.961V2.42188H233.914V60H221.961Z"
        fill="#F9F9F9" />
</svg>